<svg width="258" height="52" viewBox="0 0 258 52" fill="none" xmlns="http://www.w3.org/2000/svg">
<mask id="mask0_1_192" style="mask-type:alpha" maskUnits="userSpaceOnUse" x="8" y="8" width="36" height="36">
<path d="M38.4401 38.3465C31.5277 45.2589 20.3205 45.2589 13.4081 38.3465C6.49568 31.4341 6.49568 20.2269 13.4081 13.3145C20.3205 6.40206 31.5277 6.40206 38.4401 13.3145C45.3525 20.2269 45.3525 31.4341 38.4401 38.3465Z" fill="#632C48"/>
</mask>
<g mask="url(#mask0_1_192)">
<path d="M10.9302 40.8244L24.7881 28.5731L25.9242 47.0351L27.0603 28.5731L40.9182 40.8244L28.6669 26.9665L47.1289 25.8304L28.6669 24.6944L40.9182 10.8365L27.0603 23.0878L25.9242 4.62579L24.7881 23.0878L10.9302 10.8365L23.1815 24.6944L4.71954 25.8304L23.1815 26.9665L10.9302 40.8244Z" fill="white"/>
</g>
<path opacity="0.88" d="M25.9241 51.661L26.7315 30.4094L34.7587 50.1032L28.2489 29.8571L42.5276 45.6178L29.4858 28.8192L48.294 38.7458L30.2932 27.4208L51.3622 30.316L30.5736 25.8305L51.3622 21.3451L30.2932 24.2403L48.294 12.9153L29.4858 22.8419L42.5276 6.04325L28.2489 21.804L34.7587 1.55784L26.7315 21.2517L25.9241 6.86646e-05L25.1168 21.2517L17.0896 1.55784L23.5994 21.804L9.32063 6.04325L22.3624 22.8419L3.55429 12.9153L21.555 24.2403L0.486084 21.3451L21.2746 25.8305L0.486084 30.316L21.555 27.4208L3.55429 38.7458L22.3624 28.8192L9.32063 45.6178L23.5994 29.8571L17.0896 50.1032L25.1168 30.4094L25.9241 51.661Z" fill="white"/>
<path d="M25.9239 37.8685L28.3673 27.5237L36.1045 20.2353L25.9239 23.2917L15.7434 20.2353L23.4806 27.5237L25.9239 37.8685Z" fill="white"/>
<path d="M5.76076 26.3097C5.63468 15.6382 14.1837 6.88473 24.8552 6.75865C29.7644 6.70066 34.2751 8.48314 37.7177 11.4596L33.2824 16.5889C31.0444 14.654 28.1255 13.502 24.9353 13.5397C18.0086 13.6215 12.46 19.3028 12.5418 26.2295C12.6236 33.1562 18.3049 38.7049 25.2317 38.623C28.4218 38.5854 31.3127 37.3647 33.5044 35.3774L38.0596 40.4005C34.6883 43.4575 30.221 45.3454 25.3118 45.4034C14.6403 45.5295 5.88685 36.9811 5.76076 26.3097Z" fill="white"/>
<path d="M64.8488 39.3169C56.7644 39.3169 51.3623 33.9148 51.3623 25.8305C51.3623 17.7461 56.7644 12.344 64.8488 12.344C70.742 12.344 75.6908 16.3862 77.2019 22.4305H72.2153C70.9687 19.1061 68.0221 16.8773 64.8488 16.8773C59.7866 16.8773 56.4245 20.4661 56.4245 25.8305C56.4245 31.1948 59.7866 34.7837 64.8488 34.7837C68.3998 34.7837 71.422 32.3281 72.442 28.626H77.3153C76.0686 35.0481 71.082 39.3169 64.8488 39.3169Z" fill="white"/>
<path d="M89.527 39.3169C83.3694 39.3169 79.2894 35.3125 79.2894 29.3437C79.2894 23.3749 83.3694 19.3706 89.527 19.3706C95.6847 19.3706 99.7647 23.3749 99.7647 29.3437C99.7647 35.3125 95.6847 39.3169 89.527 39.3169ZM89.527 35.3125C92.9648 35.3125 95.2314 32.9326 95.2314 29.3437C95.2314 25.7549 92.9648 23.3749 89.527 23.3749C86.0893 23.3749 83.8227 25.7549 83.8227 29.3437C83.8227 32.9326 86.0893 35.3125 89.527 35.3125Z" fill="white"/>
<path d="M111.542 39.3169C105.648 39.3169 101.72 35.3125 101.72 29.3437C101.72 23.3749 105.648 19.3706 111.542 19.3706C113.771 19.3706 116.226 20.3905 117.662 21.9394V19.8994H122.195V38.7881H117.662V36.7481C116.226 38.2969 113.771 39.3169 111.542 39.3169ZM111.995 35.3125C115.395 35.3125 117.662 32.9326 117.662 29.3437C117.662 25.7549 115.395 23.3749 111.995 23.3749C108.557 23.3749 106.253 25.7549 106.253 29.3437C106.253 32.9326 108.557 35.3125 111.995 35.3125Z" fill="white"/>
<path d="M134.793 39.3169C128.636 39.3169 124.556 35.3125 124.556 29.3437C124.556 23.3749 128.636 19.3706 134.793 19.3706C139.893 19.3706 143.822 22.5816 144.653 27.3793H140.309C139.704 24.9616 137.513 23.3749 134.793 23.3749C131.356 23.3749 129.089 25.7549 129.089 29.3437C129.089 32.9326 131.356 35.3125 134.793 35.3125C137.551 35.3125 139.78 33.6503 140.347 31.1193H144.691C143.898 36.0303 139.931 39.3169 134.793 39.3169Z" fill="white"/>
<path d="M147.409 38.7881V12.8729H151.943V21.2972C153.189 20.1261 155.229 19.3706 157.08 19.3706C162.256 19.3706 165.694 22.4305 165.694 27.0393V38.7881H161.16V27.5682C161.16 25.0371 159.309 23.3749 156.552 23.3749C153.794 23.3749 151.943 25.0371 151.943 27.5682V38.7881H147.409Z" fill="white"/>
<path d="M169.629 38.7881V12.8729H175.182L187.913 31.7237V12.8729H192.975V38.7881H187.422L174.691 19.8994V38.7881H169.629Z" fill="white"/>
<path d="M206.068 39.3169C199.911 39.3169 195.831 35.3125 195.831 29.3437C195.831 23.3749 199.911 19.3706 206.068 19.3706C212.226 19.3706 216.306 23.3749 216.306 29.3437C216.306 35.3125 212.226 39.3169 206.068 39.3169ZM206.068 35.3125C209.506 35.3125 211.773 32.9326 211.773 29.3437C211.773 25.7549 209.506 23.3749 206.068 23.3749C202.631 23.3749 200.364 25.7549 200.364 29.3437C200.364 32.9326 202.631 35.3125 206.068 35.3125Z" fill="white"/>
<path d="M224.153 38.7881L216.597 19.8994H221.47L226.457 34.0281L231.481 19.8994H236.355L228.761 38.7881H224.153Z" fill="white"/>
<path d="M246.861 39.3169C240.968 39.3169 237.039 35.3125 237.039 29.3437C237.039 23.3749 240.968 19.3706 246.861 19.3706C249.09 19.3706 251.545 20.3905 252.981 21.9394V19.8994H257.514V38.7881H252.981V36.7481C251.545 38.2969 249.09 39.3169 246.861 39.3169ZM247.314 35.3125C250.714 35.3125 252.981 32.9326 252.981 29.3437C252.981 25.7549 250.714 23.3749 247.314 23.3749C243.877 23.3749 241.572 25.7549 241.572 29.3437C241.572 32.9326 243.877 35.3125 247.314 35.3125Z" fill="white"/>
</svg>
